# xmcd CD database file
#
# Track frame offsets:
#	150
#	29897
#	52790
#	80249
#	97709
#	131915
#	157749
#	182044
#	217024
#	234559
#	258622
#
# Disc length: 3754 seconds
#
# Revision: 0
# Processed by: cddbd v1.5.2PL0 Copyright (c) Steve Scherf et al.
# Submitted via: CDex 1.51
#
DISCID=960ea80b
DTITLE=Layce Baker and the Black Diamond Band - Live at Bo's
DYEAR=2006
DGENRE=Blues
TTITLE0=Affirmation
TTITLE1=Stand by Me
TTITLE2=Brain Surgeon
TTITLE3=Aah Baby
TTITLE4=Guess Who
TTITLE5=Slide On
TTITLE6=Hoochie Mama
TTITLE7=If Trouble Was Money
TTITLE8=I'll Be Around
TTITLE9=My Girl
TTITLE10=Red Rooster
EXTD=YEAR: 2006
EXTT0=
EXTT1=
EXTT2=
EXTT3=
EXTT4=
EXTT5=
EXTT6=
EXTT7=
EXTT8=
EXTT9=
EXTT10=
PLAYORDER=
